<?xml version="1.0"?><svg version="1.2" baseProfile="tiny-ps" viewBox="0 0 300 300" xmlns="http://www.w3.org/2000/svg" xmlns:xlink="http://www.w3.org/1999/xlink"><title>Blue Lotus Advisors</title><g><g fill="#deb67b" transform="matrix(.1 0 0 -.1 0 300)"><path d="M0 1500V0h3000v3000H0V1500z"/></g><g fill="#b5844f" transform="matrix(.1 0 0 -.1 0 300)"><path d="M0 1500V0h3000v3000H0V1500zm1500 956c0-7 25-50 55-96 31-45 63-96 71-112l16-30-16-17-16-16-25 30c-13 17-39 53-57 82s-35 52-38 52-29-35-58-78c-59-86-95-168-113-251l-11-54-31-28-30-29 7 67 7 67 26 80 27 81 74 110c41 61 79 123 84 138l10 28 9-6c5-3 9-11 9-18zm-270-344c0-2-5-12-11-23l-10-20-34 25c-19 14-36 26-38 26-3 0-12-34-22-75-9-41-21-77-27-81l-10-6-11 11-10 10 26 100c15 55 27 109 27 121v21l60-53c33-29 60-54 60-56zm644 21 6-52-8-5-9-5-12 25-11 25-22-15c-12-9-32-16-44-16h-22l-6 15-5 15 42 29c24 16 49 37 57 46l13 16 7-13c4-7 10-36 14-65zm256-298-7-170-27-79-27-79-43-66c-44-66-116-151-116-137 0 4 18 29 41 54 23 26 50 65 61 86l20 39-10 23-11 22 21 54 20 53 9 124c5 68 7 126 6 128-2 2-17-3-33-12-16-8-38-15-50-15-11 0-48-14-82-31l-61-30-67-72-68-72 35 49c33 47 82 96 127 128l24 16-11 20-11 20 23 15c12 8 60 26 107 41l85 26 25 19c14 11 25 19 26 18s-2-78-6-172zM884 1979c20-11 61-28 93-36 69-18 147-56 189-93l31-27-18-11-18-11-58 25c-32 15-80 32-108 40-27 7-59 16-71 20l-21 6 4-79c2-43 8-106 14-140l9-61 25-54c13-29 37-73 54-97l30-45-10-18c-5-10-14-18-19-18-4 0-30 32-55 71l-48 70-24 71-25 71-4 71c-9 161-12 266-9 266 2 0 20-9 39-21zm239-286 7-33h-10c-12 0-40 65-40 93v20l18-24c11-13 22-39 25-56zm677-187c0-2-8-10-17-17l-18-14 14 18c13 16 21 21 21 13zm-841-148 20-33-17-7c-9-4-31-7-49-7-17-1-34-5-38-10l-5-10 37-68c20-37 49-85 65-105l28-36-20-7-20-6 5-10c4-5 3-9-1-9-16 0-67 71-100 140-19 41-46 96-59 123l-23 47 27 1c14 0 44 6 66 14 58 19 61 18 84-17zm1135 17c27-8 62-15 77-15h28l-35-77c-62-138-84-177-118-216-41-44-131-107-155-107l-16 1 45 22 45 21 51 52c28 29 54 61 57 73l5 20-19 6-19 6 24 47c13 26 27 57 30 69l7 22-45 12-46 11v10c0 7 29 58 34 58 0 0 23-7 50-15zm-194-78c0-2-10-12-22-23l-23-19 19 23c18 21 26 27 26 19zm-450-220c0-14-96-97-112-97-6 0 7 13 28 29 21 15 48 38 58 50 18 20 26 25 26 18zm413-124c-7-2-19-2-25 0l-13 5h50l-12-5z"/></g><g fill="#2878b1" transform="matrix(.1 0 0 -.1 0 300)"><path d="M0 1500V0h3000v3000H0V1500zm1508 947c11-24 41-72 67-108 90-122 138-247 151-396l7-74-23-24c-13-14-27-25-32-25h-8v54c0 30-6 87-14 128l-14 73-26 60c-27 61-116 204-127 205-4 0-32-39-63-87l-56-86-25-78-24-78-6-68c-3-37-8-83-11-102l-5-33-31 28-30 29 6 75c11 147 56 263 150 391 31 41 63 93 72 117 9 23 18 42 20 42s12-19 22-43zm-298-303 31-19-7-30c-3-16-8-33-11-38l-4-8-39 31-39 31-4-8c-3-5-13-41-22-80l-18-73h-11c-6 0-17 4-24 9l-13 8 6 29c4 16 15 58 26 94 10 36 21 82 24 102l6 38 34-34c19-19 48-42 65-52zm686-72c15-56 25-104 23-106s-13-6-23-8l-19-3-9 35c-5 19-14 52-19 73l-10 37h-13c-7 0-23-11-36-25s-26-25-30-25-11 16-17 35l-11 35 41 29c23 16 53 41 67 56l25 27 3-29c1-15 14-74 28-131zm-1015-86c24-13 64-29 89-36 73-18 119-38 180-80l58-39 45-53c49-58 142-198 176-266l22-44-3-16-3-17-47 43c-25 23-70 77-99 120-72 106-135 179-179 208-20 13-76 37-124 52l-87 29 6-96c9-131 20-181 56-254l31-62 82-80 81-81 63-31c34-18 87-37 116-43l54-11 6-14 5-14-12-8c-7-4-45-7-85-6l-73 1-64 31-63 31-76 81-76 81-45 91-46 92-14 85-14 85-3 123c-2 67-2 122-2 122 1 0 21-11 45-24zm1258-28c-4-29-8-102-8-162l-1-108-16-61c-41-161-183-346-311-408l-46-22-48-5c-26-2-69-1-94 2l-46 7 4 12 3 11 65 16 64 16 55 29 55 30 80 80 80 80 28 57c15 32 34 83 41 115l15 58 3 88 3 88-15-5c-8-2-38-11-65-19-28-8-69-22-90-33l-40-18-55-56c-30-30-83-97-118-147l-62-92-37-30c-43-35-53-38-53-14 0 40 148 268 225 346l53 55 71 35 71 36 53 10 52 11 40 25c22 13 43 25 46 25s2-24-2-52zm-1006-240c24-35 59-90 77-123 44-81 83-128 147-176l53-41v-40l-27 7c-87 21-166 87-228 190l-36 60-24 78c-41 128-30 141 38 45zm761 0-14-63-35-72-36-72-50-55c-54-59-100-92-148-106l-30-8-13 15-12 15 19 11c11 6 46 36 79 66l58 56 56 95c57 98 117 180 132 180h8l-14-62zm-381-356 17-42v-120l-16-40c-9-22-20-40-24-40s-17 31-30 69l-22 69 7 34c3 18 13 55 22 81l15 49 8-9c4-4 14-27 23-51zm-549-2 26-39-38-11c-20-5-45-10-54-10-23 0-23 0 13-72l31-61 46-49 47-50 50-26 50-26h130l55 19c30 10 67 26 82 36 14 11 31 19 38 19h11l-3-17-3-17-53-43-52-42-57-17-57-16-63 5-63 5-52 27c-100 51-166 131-214 259-15 39-33 80-41 91-7 11-13 25-13 32v13l38 1c20 0 53 7 72 14 48 18 44 20 74-25zm1189 13 58-5-22-36c-11-20-31-64-44-98-47-125-125-218-222-265l-44-21-63-5-62-5-57 16-57 17-52 42-53 43-3 16-3 17 72-37 72-37h172l54 30 53 29 40 46c37 41 98 147 98 169v9l-38 7c-20 3-43 9-49 13l-12 7 21 34 21 33 31-6c17-4 57-9 89-13z"/></g><g fill="#6e553e" transform="matrix(.1 0 0 -.1 0 300)"><path d="M0 1500V0h3000v3000H0V1500zm1508 947c11-24 41-72 67-108 90-122 138-247 151-396l7-74-23-24c-13-14-27-25-32-25h-8v54c0 30-6 87-14 128l-14 73-26 60c-27 61-116 204-127 205-4 0-32-39-63-87l-56-86-25-78-24-78-6-68c-3-37-8-83-11-102l-5-33-31 28-30 29 6 75c11 147 56 263 150 391 31 41 63 93 72 117 9 23 18 42 20 42s12-19 22-43zm25-235 24-47 7-50 6-50-10 15-10 15v-25h-28l-7 38-8 37-9-27-9-27-15 6-14 5v-9c0-6-9-20-20-33l-20-23-1 19-1 19-13-35-14-35 7 45c3 25 7 57 7 73 0 15 3 27 8 27 4 0 7 8 7 18s12 36 26 59l27 40 17-4 18-5 25-46zm-323-68 31-19-7-30c-3-16-8-33-11-38l-4-8-39 31-39 31-4-8c-3-5-13-41-22-80l-18-73h-11c-6 0-17 4-24 9l-13 8 6 29c4 16 15 58 26 94 10 36 21 82 24 102l6 38 34-34c19-19 48-42 65-52zm686-72c15-56 25-104 23-106s-13-6-23-8l-19-3-9 35c-5 19-14 52-19 73l-10 37h-13c-7 0-23-11-36-25s-26-25-30-25-11 16-17 35l-11 35 41 29c23 16 53 41 67 56l25 27 3-29c1-15 14-74 28-131zm-298-2 1-15-9 20c-5 11-8 29-8 40v20l8-25c4-14 8-32 8-40zm-408-47c11-10 20-22 20-28v-10l-11 15-10 15 6-35 6-35-11 15-12 15 5-30 5-30-13 18-13 18-4-18-5-18-7 37-8 38 6 25c7 29 18 31 46 8zm640-37v-55l-10-6-10-6-1 13v13l-10-20-9-20 5 40 5 40-13-23-14-24 1 35c1 19 4 33 7 31 4-2 9 5 12 16l5 20h32v-54zm-949 0c24-13 64-29 89-36 73-18 119-38 180-80l58-39 45-53c49-58 142-198 176-266l22-44-3-16-3-17-47 43c-25 23-70 77-99 120-72 106-135 179-179 208-20 13-76 37-124 52l-87 29 6-96c9-131 20-181 56-254l31-62 82-80 81-81 63-31c34-18 87-37 116-43l54-11 6-14 5-14-12-8c-7-4-45-7-85-6l-73 1-64 31-63 31-76 81-76 81-45 91-46 92-14 85-14 85-3 123c-2 67-2 122-2 122 1 0 21-11 45-24zm1258-28c-4-29-8-102-8-162l-1-108-16-61c-41-161-183-346-311-408l-46-22-48-5c-26-2-69-1-94 2l-46 7 4 12 3 11 65 16 64 16 55 29 55 30 80 80 80 80 28 57c15 32 34 83 41 115l15 58 3 88 3 88-15-5c-8-2-38-11-65-19-28-8-69-22-90-33l-40-18-55-56c-30-30-83-97-118-147l-62-92-37-30c-43-35-53-38-53-14 0 40 148 268 225 346l53 55 71 35 71 36 53 10 52 11 40 25c22 13 43 25 46 25s2-24-2-52zm-1126-202c40-70 46-102 8-44l-21 33v-13c0-8 16-41 35-75l35-62-35 40c-58 66-40 22 29-70l30-40-42 40-42 39v-11c0-6 12-26 27-44l27-32-14 5c-21 7-78 94-90 136-5 20-10 68-10 105v69l12-4c7-3 30-35 51-72zm17 26v-16l-15 20c-8 10-15 23-15 28v8l15-12c8-7 15-20 15-28zm993-14c-3-29-6-69-7-88l-2-35-21-40c-12-22-36-53-53-70l-32-30 45 65c24 36 48 76 52 90l7 25-30-45c-16-25-39-54-52-65l-23-20 30 45c33 49 63 105 63 117 0 4-16-16-35-44-42-63-67-82-30-23 26 41 65 125 65 138 0 4-14-17-31-46-41-72-45-62-7 16l31 62h36l-6-52zm-63 21c-7-11-14-19-16-16-7 7 7 37 17 37h10l-11-21zm-827-71c24-35 59-90 77-123 44-81 83-128 147-176l53-41v-40l-27 7c-87 21-166 87-228 190l-36 60-24 78c-41 128-30 141 38 45zm761 0-14-63-35-72-36-72-50-55c-54-59-100-92-148-106l-30-8-13 15-12 15 19 11c11 6 46 36 79 66l58 56 56 95c57 98 117 180 132 180h8l-14-62zm-381-356 17-42v-120l-16-40c-9-22-20-40-24-40s-17 31-30 69l-22 69 7 34c3 18 13 55 22 81l15 49 8-9c4-4 14-27 23-51zm-549-2 26-39-38-11c-20-5-45-10-54-10-23 0-23 0 13-72l31-61 46-49 47-50 50-26 50-26h130l55 19c30 10 67 26 82 36 14 11 31 19 38 19h11l-3-17-3-17-53-43-52-42-57-17-57-16-63 5-63 5-52 27c-100 51-166 131-214 259-15 39-33 80-41 91-7 11-13 25-13 32v13l38 1c20 0 53 7 72 14 48 18 44 20 74-25zm1189 13 58-5-22-36c-11-20-31-64-44-98-47-125-125-218-222-265l-44-21-63-5-62-5-57 16-57 17-52 42-53 43-3 16-3 17 72-37 72-37h172l54 30 53 29 40 46c37 41 98 147 98 169v9l-38 7c-20 3-43 9-49 13l-12 7 21 34 21 33 31-6c17-4 57-9 89-13zm-1128-103 6-10h-10c-5 0-13 5-16 10l-6 10h10c5 0 13-4 16-10zm945 0c0-5-7-10-16-10h-15l6 10c3 6 10 10 16 10 5 0 9-4 9-10zm-965-21c51-24 58-32 18-23l-28 7 11-12c6-7 38-23 70-37l59-25-38 6c-21 3-46 9-55 11l-17 6 20-16c11-9 38-21 60-28 22-6 35-12 30-15-6-2-33 3-59 11l-49 15 9-9c5-5 27-19 49-30l40-21-25 7c-14 3-42 17-62 30l-38 24v14c0 8-7 16-14 19-8 3-22 20-31 37l-16 31 6 9c8 13 8 13 60-11zm1029-1c-4-13-21-43-38-66l-31-44-30-15-30-14 25 20c14 11 29 21 34 21s7 2 4 5-22-2-42-10c-21-9-43-14-49-11l-12 4 15 1c8 1 29 10 45 22l30 20-40-6-40-6 30 15c17 7 39 21 50 31l20 17-15-5c-8-2-26-7-40-11l-25-7 55 30c30 17 63 30 73 31h18l-7-22zm-944-38 15-10h-10c-5 0-17 5-25 10l-15 10h10c6 0 17-5 25-10zM703 618l5-33-11-13-10-13-21 3-21 3-3 43-3 42h59l5-32zm47-3v-35h15c8 0 15-5 15-11v-10l-22 3-23 3-3 43-3 42h21v-35zm72 3 3-33h20l3 33 3 32h19v-26c0-14-5-34-10-45l-11-19h-28l-11 19c-5 11-10 31-10 45v26h19l3-32zm128 27c0-3-10-10-22-15l-23-9h18c21-1 23-21 2-21-8 0-15-4-15-10v-10h40v-20h-50v90h25c14 0 25-2 25-5zm101-65h20l-6-10c-3-5-15-10-26-10h-19l2 48 1 47 4-37 4-38h20zm97 58c7-7 12-22 12-34v-22l-15-12-14-12-20 7-20 6-6 19-6 19 11 21 11 20h17c10 0 23-5 30-12zm84 0-12-12v-55l-10-6-10-6v71h-10c-5 0-10 5-10 10v10h64l-12-12zm56-56 12-4v72h20v-68l-14-11-13-11-17 6-16 6 1 42 2 41 6-34 6-34 13-5zm107 58c-4-6-10-8-15-5s-11 1-14-4l-6-10 20-6 20-6v-40l-14-5-15-6-18 11-18 10 23 1h22v10c0 6-6 10-14 10-16 0-25 19-18 38l4 12h49l-6-10zm123-23c7-18 12-39 12-46v-13l-16 13-16 13-19-12-19-12v10c0 19 29 80 37 80 5 0 14-15 21-33zm97-6v-34l-16-10-16-10-17 6-16 6v82l33-3 32-3v-34zm53 12 10-28 11 29c6 16 14 26 17 23 8-7-15-75-27-82l-9-6-9 23c-4 13-11 33-15 46l-7 22h9c6 0 15-12 20-27zm82-19v-45l-10 6-10 6v79h20v-46zm75 36c-4-6-10-8-15-5s-11 1-14-4l-6-10 20-6 20-6v-40l-14-5-15-6-18 11-18 10 23 1h22v10c0 6-6 10-14 10-16 0-25 19-18 38l4 12h49l-6-10zm95-10 11-21-6-19-6-19-21-7-21-6-14 18c-25 34-9 74 29 74h17l11-20zm86-28 1-42-19 16-18 17v-11c0-7-4-12-10-12h-10v81l28-3 27-3 1-43zm79 38-6-10-10 5-9 6v-11c0-6 7-13 15-16l15-6v-39l-14-5-15-6-18 11-18 10 23 1h22v10c0 6-6 10-14 10-16 0-25 19-18 38l4 12h49l-6-10zm108-63 22-3-17-8-18-8-15 6-15 5v34c0 19 3 37 8 41l7 8 3-35 3-36 22-4zm57 32v-29h15c8 0 15-4 15-10v-10h-50v91l10-6 10-6v-30zm110 31v-10h-19c-24 0-33-13-25-35l7-17 18 5 19 5v-9c0-5-7-12-15-15l-15-6-15 12-15 12v28c0 33 7 40 37 40h23v-10zM660 590c0-5 7-10 15-10s15 5 15 10c0 6-7 10-15 10s-15-4-15-10zm443 24-6-15 11-11 10-10 11 6c6 4 11 16 11 27v19h-31l-6-16zm467-9v-26l18 3 17 3v40l-17 3-18 3v-26zm302 3 3-23h30v40l-18 3-19 4 4-24zm98 12c0-5 5-10 10-10 6 0 10 5 10 10 0 6-4 10-10 10-5 0-10-4-10-10z"/></g><g fill="#13466a" transform="matrix(.1 0 0 -.1 0 300)"><path d="M0 1500V0h3000v3000H0V1500zm1515 946c14-30 43-76 64-103 52-66 87-128 111-199 28-78 50-185 50-237v-41l-32-33c-18-18-35-33-39-33-3 0-9 46-12 103l-5 102-26 81-26 82-53 81c-28 44-55 80-58 81-11 0-96-135-118-186-31-74-49-159-57-262l-7-93-38 37-39 38v27c0 14 7 66 15 114l16 88 30 73 30 73 57 79c31 43 68 102 81 130 14 29 26 52 27 52 2 0 15-24 29-54zm18-234 24-47 7-50 6-50-10 15-10 15v-25h-28l-7 38-8 37-9-27-9-27-15 6-14 5v-9c0-6-9-20-20-33l-20-23-1 19-1 19-13-35-14-35 7 45c3 25 7 57 7 73 0 15 3 27 8 27 4 0 7 8 7 18s12 36 26 59l27 40 17-4 18-5 25-46zm-385-9c22-21 53-48 70-60l30-23-11-37c-6-21-12-40-13-42-2-2-20 11-41 28l-38 32-17-53c-9-29-17-63-17-75-1-27-11-34-39-26l-22 5v28c0 16 9 57 20 92 11 34 23 87 26 116 4 28 8 52 9 52 2 0 21-17 43-37zm732-15c0-15 11-71 25-125l25-97-7-7c-5-4-18-10-29-13l-22-7-17 73c-10 40-20 77-22 81l-5 9-34-33-34-33-9 10c-5 5-12 26-16 46l-7 37 41 25c23 15 53 40 68 56l27 30 8-12c4-7 8-25 8-40zm-282-118 1-15-9 20c-5 11-8 29-8 40v20l8-25c4-14 8-32 8-40zm-408-47c11-10 20-22 20-28v-10l-11 15-10 15 6-35 6-35-11 15-12 15 5-30 5-30-13 18-13 18-4-18-5-18-7 37-8 38 6 25c7 29 18 31 46 8zm640-37v-55l-10-6-10-6-1 13v13l-10-20-9-20 5 40 5 40-13-23-14-24 1 35c1 19 4 33 7 31 4-2 9 5 12 16l5 20h32v-54zm-957 9c24-13 72-32 107-41 36-9 92-30 125-48l60-31 63-63 63-63 64-99c36-55 75-119 86-144l22-44-6-16c-4-9-10-16-15-16-16 0-100 94-153 170-29 41-72 99-96 128l-45 52-42 25c-34 20-189 78-192 72 0-1 3-50 7-108l7-107 12-38c7-22 24-61 37-88l24-48 77-78 77-77 55-31 55-32 71-16 72-16 5-24 5-25-25-10c-61-23-173 1-258 55l-50 33-60 65c-72 79-119 155-152 246l-25 67-8 176c-4 97-10 182-14 188-11 17 1 13 47-14zm1270-117c-2-79-8-172-14-208l-10-64-34-74c-44-94-110-186-177-247l-53-48-61-29-61-29-51-6-50-6-37 7-36 7 3 27 3 27 80 20 80 21 50 29 50 29 72 73 73 74 36 74 35 75 9 117c5 65 8 118 7 119-1 2-33-6-71-16-126-35-191-90-300-253l-59-88-45-40c-50-44-57-46-66-23l-6 17 35 65c20 36 61 102 91 148l55 83 60 59 59 59 48 26c26 14 79 34 119 45 75 21 140 48 149 63 3 5 9 9 13 9h7l-3-142zm-1130-122c40-70 46-102 8-44l-21 33v-13c0-8 16-41 35-75l35-62-35 40c-58 66-40 22 29-70l30-40-42 40-42 39v-11c0-6 12-26 27-44l27-32-14 5c-21 7-78 94-90 136-5 20-10 68-10 105v69l12-4c7-3 30-35 51-72zm17 26v-16l-15 20c-8 10-15 23-15 28v8l15-12c8-7 15-20 15-28zm993-14c-3-29-6-69-7-88l-2-35-21-40c-12-22-36-53-53-70l-32-30 45 65c24 36 48 76 52 90l7 25-30-45c-16-25-39-54-52-65l-23-20 30 45c33 49 63 105 63 117 0 4-16-16-35-44-42-63-67-82-30-23 26 41 65 125 65 138 0 4-14-17-31-46-41-72-45-62-7 16l31 62h36l-6-52zm-63 21c-7-11-14-19-16-16-7 7 7 37 17 37h10l-11-21zm-834-49c13-14 44-63 71-110l47-85 51-54c27-29 69-66 91-82l41-28-4-26-5-25h-19c-11 0-41 10-67 22l-47 22-55 56-56 55-31 55c-32 58-83 206-83 242v21l22-19c12-10 32-30 44-44zm784 27c0-37-30-127-66-198l-33-66-52-57-52-58-51-29-51-29h-45l-6 25c-4 14-5 27-3 29 127 90 148 113 225 245 51 86 109 161 125 161h9v-23zm-385-421c19-64 18-119-3-181l-17-50h-27l-19 45-18 45v57l-1 57 21 57 22 57 14-19c7-10 20-41 28-68zm-557 19c12-19 22-39 22-44 0-11-35-21-72-21h-28v-11c0-6 14-37 31-69l31-58 51-51 51-51 56-21 55-21 65 6 65 6 73 35 72 36 10-6c6-3 10-12 10-20 0-21-79-84-140-113l-55-26h-150l-56 26-56 26-43 38c-54 48-98 118-134 209-15 39-37 85-48 103l-20 32 34 1c18 0 51 6 73 14 22 7 49 13 60 14l20 1 23-35zm1147 16c22-6 54-11 71-11h30l-35-73c-20-41-49-103-66-138l-29-64-51-51-50-50-55-27-55-26-51-7-50-6-63 16-62 16-42 29c-23 16-53 40-66 54l-24 26 7 16c3 9 9 15 14 13 4-2 39-19 77-38l70-35h160l54 30 53 29 38 43c21 24 51 68 66 98l29 56-15 9c-8 5-32 12-52 15-21 4-38 9-38 13 0 3 12 23 27 45l27 39 20-6c12-2 39-9 61-15zm-1090-111 6-10h-10c-5 0-13 5-16 10l-6 10h10c5 0 13-4 16-10zm945 0c0-5-7-10-16-10h-15l6 10c3 6 10 10 16 10 5 0 9-4 9-10zm-965-21c51-24 58-32 18-23l-28 7 11-12c6-7 38-23 70-37l59-25-38 6c-21 3-46 9-55 11l-17 6 20-16c11-9 38-21 60-28 22-6 35-12 30-15-6-2-33 3-59 11l-49 15 9-9c5-5 27-19 49-30l40-21-25 7c-14 3-42 17-62 30l-38 24v14c0 8-7 16-14 19-8 3-22 20-31 37l-16 31 6 9c8 13 8 13 60-11zm1029-1c-4-13-21-43-38-66l-31-44-30-15-30-14 25 20c14 11 29 21 34 21s7 2 4 5-22-2-42-10c-21-9-43-14-49-11l-12 4 15 1c8 1 29 10 45 22l30 20-40-6-40-6 30 15c17 7 39 21 50 31l20 17-15-5c-8-2-26-7-40-11l-25-7 55 30c30 17 63 30 73 31h18l-7-22zm-944-38 15-10h-10c-5 0-17 5-25 10l-15 10h10c6 0 17-5 25-10zM703 618l5-33-11-13-10-13-21 3-21 3-3 43-3 42h59l5-32zm47-3v-35h15c8 0 15-5 15-11v-10l-22 3-23 3-3 43-3 42h21v-35zm72 3 3-33h20l3 33 3 32h19v-26c0-14-5-34-10-45l-11-19h-28l-11 19c-5 11-10 31-10 45v26h19l3-32zm128 27c0-3-10-10-22-15l-23-9h18c21-1 23-21 2-21-8 0-15-4-15-10v-10h40v-20h-50v90h25c14 0 25-2 25-5zm101-65h20l-6-10c-3-5-15-10-26-10h-19l2 48 1 47 4-37 4-38h20zm97 58c7-7 12-22 12-34v-22l-15-12-14-12-20 7-20 6-6 19-6 19 11 21 11 20h17c10 0 23-5 30-12zm84 0-12-12v-55l-10-6-10-6v71h-10c-5 0-10 5-10 10v10h64l-12-12zm56-56 12-4v72h20v-68l-14-11-13-11-17 6-16 6 1 42 2 41 6-34 6-34 13-5zm107 58c-4-6-10-8-15-5s-11 1-14-4l-6-10 20-6 20-6v-40l-14-5-15-6-18 11-18 10 23 1h22v10c0 6-6 10-14 10-16 0-25 19-18 38l4 12h49l-6-10zm123-23c7-18 12-39 12-46v-13l-16 13-16 13-19-12-19-12v10c0 19 29 80 37 80 5 0 14-15 21-33zm97-6v-34l-16-10-16-10-17 6-16 6v82l33-3 32-3v-34zm53 12 10-28 11 29c6 16 14 26 17 23 8-7-15-75-27-82l-9-6-9 23c-4 13-11 33-15 46l-7 22h9c6 0 15-12 20-27zm82-19v-45l-10 6-10 6v79h20v-46zm75 36c-4-6-10-8-15-5s-11 1-14-4l-6-10 20-6 20-6v-40l-14-5-15-6-18 11-18 10 23 1h22v10c0 6-6 10-14 10-16 0-25 19-18 38l4 12h49l-6-10zm95-10 11-21-6-19-6-19-21-7-21-6-14 18c-25 34-9 74 29 74h17l11-20zm86-28 1-42-19 16-18 17v-11c0-7-4-12-10-12h-10v81l28-3 27-3 1-43zm79 38-6-10-10 5-9 6v-11c0-6 7-13 15-16l15-6v-39l-14-5-15-6-18 11-18 10 23 1h22v10c0 6-6 10-14 10-16 0-25 19-18 38l4 12h49l-6-10zm108-63 22-3-17-8-18-8-15 6-15 5v34c0 19 3 37 8 41l7 8 3-35 3-36 22-4zm57 32v-29h15c8 0 15-4 15-10v-10h-50v91l10-6 10-6v-30zm110 31v-10h-19c-24 0-33-13-25-35l7-17 18 5 19 5v-9c0-5-7-12-15-15l-15-6-15 12-15 12v28c0 33 7 40 37 40h23v-10zM660 590c0-5 7-10 15-10s15 5 15 10c0 6-7 10-15 10s-15-4-15-10zm443 24-6-15 11-11 10-10 11 6c6 4 11 16 11 27v19h-31l-6-16zm467-9v-26l18 3 17 3v40l-17 3-18 3v-26zm302 3 3-23h30v40l-18 3-19 4 4-24zm98 12c0-5 5-10 10-10 6 0 10 5 10 10 0 6-4 10-10 10-5 0-10-4-10-10z"/></g><g fill="#121922" transform="matrix(.1 0 0 -.1 0 300)"><path d="M0 1500V0h3000v3000H0V1500zm1515 946c14-30 43-76 64-103 52-66 87-128 111-199 28-78 50-185 50-237v-41l-32-33c-18-18-35-33-39-33-3 0-9 46-12 103l-5 102-26 81-26 82-53 81c-28 44-55 80-58 81-11 0-96-135-118-186-31-74-49-159-57-262l-7-93-38 37-39 38v27c0 14 7 66 15 114l16 88 30 73 30 73 57 79c31 43 68 102 81 130 14 29 26 52 27 52 2 0 15-24 29-54zm24-217 41-61 21-67 20-66 4-95 4-95-9 59c-13 77-20 82-21 15l-2-54-4 25c-3 14-8 29-13 33l-8 9 5-25 5-25-11-6-11-7-1 33c0 18-5 42-10 53l-9 20 5-60 5-60-9 20c-6 11-13 43-17 70l-7 50-13-99c-8-54-16-101-20-105l-6-6 6 45 6 45-9 50-9 50-3-60-2-60-6 60-7 60-8-50c-11-71-14-76-15-26-1 57-11 47-21-21l-8-53-2 70c-2 80-7 75-19-16l-8-64-3 70c-2 83-7 77-19-25l-10-75 3 105 3 105 23 83 22 83 24 35c13 19 24 38 24 41 0 9 42 53 51 53 4 0 26-27 48-61zm-391-26c22-21 53-48 70-60l30-23-11-37c-6-21-12-40-13-42-2-2-20 11-41 28l-38 32-17-53c-9-29-17-63-17-75-1-27-11-34-39-26l-22 5v28c0 16 9 57 20 92 11 34 23 87 26 116 4 28 8 52 9 52 2 0 21-17 43-37zm732-15c0-15 11-71 25-125l25-97-7-7c-5-4-18-10-29-13l-22-7-17 73c-10 40-20 77-22 81l-5 9-34-33-34-33-9 10c-5 5-12 26-16 46l-7 37 41 25c23 15 53 40 68 56l27 30 8-12c4-7 8-25 8-40zm-687-156 27-28-10-54c-11-58-17-70-28-54-4 6-18 15-31 19l-24 7 6 58c8 89 17 97 60 52zm641 6c3-13 7-42 10-65l6-41-36-21c-20-12-38-20-40-18s-6 29-9 61l-6 56 27 25c33 31 42 31 48 3zm-961-43c24-13 72-32 107-41 36-9 92-30 125-48l60-31 63-63 63-63 64-99c36-55 75-119 86-144l22-44-6-16c-4-9-10-16-15-16-16 0-100 94-153 170-29 41-72 99-96 128l-45 52-42 25c-34 20-189 78-192 72 0-1 3-50 7-108l7-107 12-38c7-22 24-61 37-88l24-48 77-78 77-77 55-31 55-32 71-16 72-16 5-24 5-25-25-10c-61-23-173 1-258 55l-50 33-60 65c-72 79-119 155-152 246l-25 67-8 176c-4 97-10 182-14 188-11 17 1 13 47-14zm1270-117c-2-79-8-172-14-208l-10-64-34-74c-44-94-110-186-177-247l-53-48-61-29-61-29-51-6-50-6-37 7-36 7 3 27 3 27 80 20 80 21 50 29 50 29 72 73 73 74 36 74 35 75 9 117c5 65 8 118 7 119-1 2-33-6-71-16-126-35-191-90-300-253l-59-88-45-40c-50-44-57-46-66-23l-6 17 35 65c20 36 61 102 91 148l55 83 60 59 59 59 48 26c26 14 79 34 119 45 75 21 140 48 149 63 3 5 9 9 13 9h7l-3-142zm-1153-48c10 0 26-8 35-17l17-16-5-32-5-31 14-24c7-14 13-36 14-50v-25l20-30 20-30-5-16-5-16 15-13c9-7 21-22 27-33l10-20-18 7-19 6 27-24c16-14 36-29 45-35l18-9-7-8-7-7-28 17-28 17 40-36 40-36-45 22c-102 50-155 112-196 229l-24 70v152l16-6c9-3 24-6 34-6zm1047-73-4-82-34-80-33-80-39-42c-34-37-114-93-132-93-4 0 15 17 42 39 26 21 59 51 73 67l25 28-45-36c-25-19-56-41-70-48l-25-12 55 52 55 52-27-16c-38-22-45-20-22 7 11 12 26 31 34 41l15 20-12-8-13-7v11c0 7 8 24 18 38 10 15 22 33 27 41l8 14-11-7-12-7v11c0 6 9 29 20 50l20 40h-22l7 28c8 35 15 42 51 48 16 3 31 7 33 10 2 2 8 4 13 4h9l-4-83zm-911-17c13-14 44-63 71-110l47-85 51-54c27-29 69-66 91-82l41-28-4-26-5-25h-19c-11 0-41 10-67 22l-47 22-55 56-56 55-31 55c-32 58-83 206-83 242v21l22-19c12-10 32-30 44-44zm784 27c0-37-30-127-66-198l-33-66-52-57-52-58-51-29-51-29h-45l-6 25c-4 14-5 27-3 29 127 90 148 113 225 245 51 86 109 161 125 161h9v-23zm-385-421c19-64 18-119-3-181l-17-50h-27l-19 45-18 45v57l-1 57 21 57 22 57 14-19c7-10 20-41 28-68zm-557 19c12-19 22-39 22-44 0-11-35-21-72-21h-28v-11c0-6 14-37 31-69l31-58 51-51 51-51 56-21 55-21 65 6 65 6 73 35 72 36 10-6c6-3 10-12 10-20 0-21-79-84-140-113l-55-26h-150l-56 26-56 26-43 38c-54 48-98 118-134 209-15 39-37 85-48 103l-20 32 34 1c18 0 51 6 73 14 22 7 49 13 60 14l20 1 23-35zm1147 16c22-6 54-11 71-11h30l-35-73c-20-41-49-103-66-138l-29-64-51-51-50-50-55-27-55-26-51-7-50-6-63 16-62 16-42 29c-23 16-53 40-66 54l-24 26 7 16c3 9 9 15 14 13 4-2 39-19 77-38l70-35h160l54 30 53 29 38 43c21 24 51 68 66 98l29 56-15 9c-8 5-32 12-52 15-21 4-38 9-38 13 0 3 12 23 27 45l27 39 20-6c12-2 39-9 61-15zm-1073-120 23-29 37-17 37-17-6-14-5-14 23-1c13 0 40-7 59-14l35-13-40-2-40-2 60-9c33-5 67-12 75-15l15-6-30-14-30-13-49-1h-49l7-7 7-8 62 2 62 2-20-9c-11-5-46-9-78-9l-58-1-36 15c-20 9-55 31-79 50l-42 35-27 45-26 46 3 17 3 17 30 6c50 11 53 10 77-20zm1002 9 8-8-23-48-24-47-50-43-50-44-13 5-13 5 5-9 6-9-32-11c-17-6-52-11-77-10l-46 1 60 13 60 12-52 2-53 1v20l38 2 37 1-50 7-50 6 40 8c22 4 54 12 70 17l30 8-49-6-49-6 7 11c3 5 29 16 58 23l53 12-19 7-19 6 24 17c13 9 29 17 36 17s13 5 13 12c0 6 7 19 16 29l15 17 42-5c23-3 46-9 51-13zM699 646l12-15-3-33-3-33-32-3-33-3v101h48l11-14zm51-20v-34l20-5c11-3 20-10 20-16v-11h-60v100h20v-34zm78-4 3-32 10 5c5 4 9 19 9 36v29h21l-3-47-3-48h-60l-3 49-3 48 13-4 13-5 3-31zm119 3-4-35 9-6 8-5-5-10c-4-5-19-9-36-9h-29v43c0 50 4 57 37 57h23l-3-35zm93-5v-28l15-6c8-3 15-10 15-16v-10h-60v43c0 24 3 47 6 50 12 12 24-4 24-33zm115 16 16-23-10-27-11-26h-23c-42 0-60 38-37 81l11 19h39l15-24zm85 9c0-8-4-15-10-15h-10v-72l-12 4-13 5-3 29c-2 16-8 32-14 35l-11 7 7 11 7 11h59v-15zm40-26v-29h20v70h20v-91l-16-6-17-6-16 10-16 10-3 27c-2 15-1 34 2 42l6 15 10-6 10-6v-30zm118 24 4-13h-34l22-18 21-17-6-18-7-17h-47l-7 12-8 12 12 4 11 3-11 19-12 18 14 17 13 16 15-3c9-2 17-9 20-15zm131-42c13-39 7-50-17-35l-17 11-17-11c-28-17-30-2-8 49l21 48 13-14c7-8 18-29 25-48zm85 43 16-15v-23c0-12-5-27-12-34l-12-12h-56v100h49l15-16zm52-6 6-21 18 23 17 23 7-11 6-11-16-40-16-41h-27l-10 38c-6 20-11 43-11 50 0 20 18 14 26-10zm90-2c3-13 4-34 2-47l-3-22-12-5-13-4v102h10c5 0 12-11 16-24zm72 7 4-13h-34l22-18 21-17-6-18-7-17h-58v30h24l-12 12c-16 16-15 45 1 51 19 8 40 3 45-10zm96-16 10-28-10-17-11-17-27-3-26-3-9 23c-9 24-5 44 12 66l10 13 21-3 21-3 9-28zm82 21c4-6 8-29 8-50l1-38h-10c-6 0-16 5-23 12l-12 12v-12c0-7-4-12-10-12h-10v100h49l7-12zm82-5 4-13h-34l22-18 21-17-6-18-7-17h-47l-7 12-8 12 12 4 11 3-11 19-12 18 14 17 13 16 15-3c9-2 17-9 20-15zm90-19 4-29 14-8c8-4 14-12 14-17v-10h-60v102l13-4 12-5 3-29zm72 1v-35h30v-30h-60v43c0 43 5 57 22 57h8v-35zm110 20 12-15-8-2c-5 0-16-1-24-2l-15-1-3-17-3-16 23-4 23-3v-20l-23-3-23-4-15 12-14 12v47l16 15c19 20 38 20 54 1zm-1250-34v-21h31l-3 17c-2 9-9 18-15 21l-13 4v-21zm470 0v-21h10c6 0 10 6 10 14s-4 18-10 21l-10 6v-20zm295 9c-7-12 2-30 16-30h9v40h-9c-6 0-13-4-16-10zm95 0c0-5 5-10 10-10 6 0 10 5 10 10 0 6-4 10-10 10-5 0-10-4-10-10z"/></g></g></svg>
